# xmcd
#
# Track frame offsets:
#	183
#	18470
#	29953
#	46628
#	68293
#	83813
#	100943
#	128195
#	142763
#	180575
#	200158
#
# Disc length: 2889 seconds
#
# Revision: 1
# Processed by: cddbd v1.5.2PL0 Copyright (c) Steve Scherf et al.
# Submitted via: audiograbber 1.83.01
#
DISCID=8e0b470b
DTITLE=Margo Anand - Love and Eros
DYEAR=1993
DGENRE=
TTITLE0=Rainbow Horizon
TTITLE1=Romantic Sentiments
TTITLE2=Bella Amore
TTITLE3=Delicious
TTITLE4=Dreams of Flying
TTITLE5=Twilight
TTITLE6=Albertos Song
TTITLE7=LOve`s  Aura
TTITLE8=Tropical  Nights
TTITLE9=Sentmental Moments
TTITLE10=StarrymSkies
EXTD=
EXTT0=
EXTT1=
EXTT2=
EXTT3=
EXTT4=
EXTT5=
EXTT6=
EXTT7=
EXTT8=
EXTT9=
EXTT10=
PLAYORDER=
